<?xml version="1.0" encoding="UTF-8" standalone="no"?>
<!-- Created with Inkscape (http://www.inkscape.org/) -->

<svg
   width="210mm"
   height="297mm"
   viewBox="0 0 210 297"
   version="1.1"
   id="svg5"
   sodipodi:docname="G4.svg"
   inkscape:version="1.1.1 (3bf5ae0d25, 2021-09-20)"
   xmlns:inkscape="http://www.inkscape.org/namespaces/inkscape"
   xmlns:sodipodi="http://sodipodi.sourceforge.net/DTD/sodipodi-0.dtd"
   xmlns="http://www.w3.org/2000/svg"
   xmlns:svg="http://www.w3.org/2000/svg">
  <sodipodi:namedview
     id="namedview11"
     pagecolor="#ffffff"
     bordercolor="#666666"
     borderopacity="1.0"
     inkscape:pageshadow="2"
     inkscape:pageopacity="0.0"
     inkscape:pagecheckerboard="0"
     inkscape:document-units="mm"
     showgrid="false"
     inkscape:zoom="0.46324355"
     inkscape:cx="397.19927"
     inkscape:cy="560.1805"
     inkscape:window-width="1366"
     inkscape:window-height="705"
     inkscape:window-x="-8"
     inkscape:window-y="-8"
     inkscape:window-maximized="1"
     inkscape:current-layer="layer1" />
  <defs
     id="defs2" />
  <g
     id="layer1"
     style="fill:#000000;fill-opacity:1">
    <path
       style="fill:#000000;stroke-width:0.129489;fill-opacity:1"
       d="m 98.443779,236.00306 c -2.08011,-0.60423 -3.7443,-1.78122 -6.16104,-4.35734 -0.94887,-1.01143 -5.88398,-6.34425 -10.96692,-11.85067 -5.08294,-5.50644 -15.66871,-16.97272 -23.52394,-25.48064 l -14.28223,-15.46893 h -13.32459 c -14.77002,0 -13.93988,0.048 -15.71486,-0.90928 -1.27025,-0.68509 -2.60771,-2.16877 -3.24407,-3.59872 -0.87315,-1.96206 -0.82073,-0.14671 -0.82073,-28.42184 0,-28.25905 -0.0507,-26.48429 0.81312,-28.43941 0.60039,-1.35878 2.08043,-3.00167 3.28109,-3.64208 1.66885,-0.89013 0.90009,-0.84835 15.6074,-0.84835 h 13.36976 l 1.91478,-2.08394 c 1.05313,-1.14617 10.62048,-11.507306 21.26076,-23.024752 10.64029,-11.517444 21.00948,-22.751121 23.04266,-24.963725 2.03317,-2.212603 4.04362,-4.316313 4.46766,-4.674911 1.06979,-0.904702 2.61937,-1.785636 3.78826,-2.153625 1.38708,-0.436678 3.361951,-0.435491 4.497631,0.0027 2.299,0.887052 3.86716,2.944116 4.65958,6.112297 l 0.33095,1.323154 0.037,80.827782 c 0.0265,57.9059 -0.001,81.24788 -0.0981,82.30909 -0.31128,3.41309 -1.09156,5.58738 -2.66691,7.43149 -1.63935,1.91904 -3.88446,2.60384 -6.267301,1.91169 z M 119.5207,178.0139 c -2.67484,-0.43043 -4.98728,-2.47265 -5.92934,-5.23648 -0.74177,-2.17624 -0.63259,-4.43439 0.31667,-6.54987 1.01791,-2.26846 2.39355,-3.46779 5.11396,-4.45849 2.91332,-1.06096 4.88659,-2.39139 6.76209,-4.55919 2.6765,-3.09363 4.06323,-6.94819 4.06323,-11.29423 0,-4.69111 -1.55106,-8.67962 -4.64461,-11.94349 -1.87375,-1.97691 -3.79628,-3.1729 -6.51754,-4.05449 -1.69785,-0.55005 -2.08441,-0.74696 -3.1204,-1.58959 -1.91019,-1.55365 -2.97969,-4.13984 -2.8558,-6.9057 0.15132,-3.37814 2.0541,-6.20307 4.96594,-7.3726 0.89831,-0.3608 2.87473,-0.48506 4.06738,-0.2557 2.60331,0.50062 6.81138,2.52079 9.72521,4.66877 2.54536,1.87636 5.51725,4.9776 7.33322,7.65242 2.97605,4.38353 4.93156,9.52732 5.68781,14.96132 0.31745,2.28093 0.37661,6.69638 0.1177,8.7852 -1.35978,10.97104 -7.20513,20.25788 -15.92013,25.29329 -2.36462,1.36625 -5.44279,2.5929 -7.19965,2.86906 -0.96843,0.15224 -0.95566,0.15231 -1.96574,-0.0102 z"
       id="path1102" />
    <path
       style="fill:#000000;stroke-width:0.129489;fill-opacity:1"
       d="m 98.44378,236.00309 c -2.08011,-0.60423 -3.7443,-1.78122 -6.16104,-4.35734 -0.94887,-1.01143 -5.88398,-6.34425 -10.96692,-11.85067 -5.08294,-5.50644 -15.66871,-16.97272 -23.52394,-25.48064 L 43.50965,178.84551 H 30.18506 c -14.77002,0 -13.93988,0.048 -15.71486,-0.90928 -1.27025,-0.68509 -2.60771,-2.16877 -3.24407,-3.59872 -0.87315,-1.96206 -0.82073,-0.14671 -0.82073,-28.42185 0,-28.25904 -0.0507,-26.48428 0.81312,-28.4394 0.60039,-1.35878 2.08043,-3.00167 3.28109,-3.64208 1.66885,-0.89013 0.90009,-0.84835 15.6074,-0.84835 h 13.36976 l 1.91478,-2.08394 C 46.44468,109.75572 56.01203,99.39458 66.65231,87.877134 77.2926,76.35969 87.66179,65.126013 89.69497,62.913409 c 2.03317,-2.212603 4.04362,-4.316313 4.46766,-4.674911 1.06979,-0.904702 2.61937,-1.785636 3.78826,-2.153625 1.38708,-0.436678 3.36195,-0.435491 4.49763,0.0027 2.299,0.887052 3.86716,2.944116 4.65958,6.112297 l 0.33095,1.323154 0.037,80.827776 c 0.0265,57.90591 -0.001,81.24789 -0.0981,82.3091 -0.31128,3.41309 -1.09156,5.58738 -2.66691,7.43149 -1.63935,1.91904 -3.88446,2.60384 -6.2673,1.91169 z m 39.02771,-30.83028 c -2.73762,-0.65655 -5.05214,-3.2333 -5.63552,-6.27399 -0.73506,-3.83132 0.89051,-7.38897 4.23893,-9.27707 6.05723,-3.41556 12.03669,-9.36091 16.02309,-15.9317 5.31051,-8.75332 7.8699,-18.55439 7.60814,-29.13512 -0.15352,-6.20473 -1.11401,-11.3895 -3.16616,-17.09076 -3.78839,-10.52484 -11.26079,-19.74864 -20.31204,-25.07284 -2.33839,-1.3755 -3.79778,-3.365221 -4.26873,-5.81995 -1.08288,-5.644199 3.25606,-10.779559 8.32208,-9.84964 1.21765,0.223511 1.94716,0.563245 3.93976,1.834745 5.38309,3.435004 9.26082,6.744879 13.49841,11.521715 8.88692,10.01777 14.56967,22.71532 16.37325,36.58446 0.42267,3.25018 0.49797,4.64927 0.49797,9.25301 0,4.6015 -0.0749,5.9941 -0.49741,9.253 -1.25198,9.65594 -4.39628,18.83662 -9.2196,26.91936 -2.32707,3.89958 -4.60024,6.9552 -7.76412,10.43654 -3.94688,4.3429 -7.3376,7.24578 -12.08755,10.34841 -1.01659,0.66402 -2.20877,1.40881 -2.64929,1.65506 -1.42882,0.79873 -3.25663,1.03918 -4.90121,0.64477 z M 119.5207,178.01393 c -2.67484,-0.43043 -4.98728,-2.47265 -5.92934,-5.23648 -0.74177,-2.17625 -0.63259,-4.4344 0.31667,-6.54988 1.01791,-2.26846 2.39355,-3.46778 5.11396,-4.45848 2.91332,-1.06097 4.88659,-2.39139 6.76209,-4.55919 2.6765,-3.09364 4.06323,-6.9482 4.06323,-11.29424 0,-4.69111 -1.55106,-8.67962 -4.64461,-11.94349 -1.87375,-1.9769 -3.79628,-3.17289 -6.51754,-4.05448 -1.69785,-0.55005 -2.08441,-0.74696 -3.1204,-1.58959 -1.91019,-1.55365 -2.97969,-4.13984 -2.8558,-6.9057 0.15132,-3.37814 2.0541,-6.20307 4.96594,-7.3726 0.89831,-0.3608 2.87473,-0.48506 4.06738,-0.2557 2.60331,0.50062 6.81138,2.52079 9.72521,4.66877 2.54536,1.87636 5.51725,4.9776 7.33322,7.65242 2.97605,4.38353 4.93156,9.52731 5.68781,14.96131 0.31745,2.28093 0.37661,6.69638 0.1177,8.7852 -1.35978,10.97105 -7.20513,20.25788 -15.92013,25.2933 -2.36462,1.36625 -5.44279,2.5929 -7.19965,2.86906 -0.96843,0.15224 -0.95566,0.15231 -1.96574,-0.0102 z"
       id="path1102-18" />
    <path
       style="fill:#fffffd;stroke-width:2.029;fill-opacity:1;stroke:#000000;stroke-opacity:1;stroke-miterlimit:4;stroke-dasharray:none"
       d="m 98.44378,236.00303 c -2.08011,-0.60423 -3.7443,-1.78122 -6.16104,-4.35734 -0.94887,-1.01143 -5.88398,-6.34425 -10.96692,-11.85067 C 76.23288,214.28858 65.64711,202.8223 57.79188,194.31438 L 43.50965,178.84545 H 30.18506 c -14.77002,0 -13.93988,0.048 -15.71486,-0.90928 -1.27025,-0.68509 -2.60771,-2.16877 -3.24407,-3.59872 -0.87315,-1.96206 -0.82073,-0.14671 -0.82073,-28.42184 0,-28.25905 -0.0507,-26.48429 0.81312,-28.43941 0.60039,-1.35878 2.08043,-3.00167 3.28109,-3.64208 1.66885,-0.89013 0.90009,-0.84835 15.6074,-0.84835 h 13.36976 l 1.91478,-2.08394 c 1.05313,-1.14617 10.62048,-11.50731 21.26076,-23.024747 10.64029,-11.51745 21.00948,-22.75112 23.04266,-24.96373 2.03317,-2.2126 4.04362,-4.31631 4.46766,-4.67491 1.06979,-0.9047 2.61937,-1.78563 3.78826,-2.15362 1.38708,-0.43668 3.36195,-0.43549 4.49763,0.003 2.299,0.88705 3.86716,2.94411 4.65958,6.11229 l 0.33095,1.32316 0.037,80.827777 c 0.0265,57.9059 -0.001,81.24788 -0.0981,82.30909 -0.31128,3.41309 -1.09156,5.58738 -2.66691,7.43149 -1.63935,1.91904 -3.88446,2.60384 -6.2673,1.91169 z m 54.71091,-8.14539 c -2.49629,-0.82022 -4.53133,-3.11672 -5.16486,-5.82842 -0.10936,-0.46809 -0.19533,-1.38776 -0.19533,-2.0895 0,-1.50898 0.23669,-2.60127 0.83821,-3.86825 0.77841,-1.63957 2.26755,-3.12368 3.80247,-3.78967 0.75626,-0.32811 3.80941,-2.20115 5.67988,-3.48447 10.87135,-7.4587 19.94722,-18.77807 25.27065,-31.51746 3.40249,-8.14241 5.34306,-16.36808 6.06713,-25.7172 0.21558,-2.78361 0.18397,-9.02535 -0.061,-12.03773 -0.99438,-12.22973 -4.3665,-23.29193 -10.19846,-33.45594 -6.1985,-10.802807 -15.21289,-19.946867 -25.4827,-25.849247 -2.07507,-1.19261 -2.68473,-1.62642 -3.36583,-2.395 -1.35545,-1.52952 -2.08134,-3.51576 -2.09376,-5.72913 -0.0128,-2.27407 0.68841,-4.18092 2.13091,-5.79503 1.45621,-1.62945 2.9357,-2.30495 5.06352,-2.31189 1.9973,-0.006 2.71405,0.25958 5.9309,2.20192 13.76981,8.3142 24.83675,20.27638 32.52945,35.160847 11.49533,22.24207 13.80599,49.0713 6.33045,73.50294 -5.78041,18.89156 -17.36893,35.48453 -32.47977,46.506 -3.35923,2.45013 -8.76443,5.81672 -10.2891,6.40846 -0.92173,0.35775 -3.34257,0.40758 -4.3128,0.0888 z m -15.6832,-22.68489 c -2.73762,-0.65655 -5.05214,-3.2333 -5.63552,-6.27399 -0.73506,-3.83132 0.89051,-7.38897 4.23893,-9.27707 6.05723,-3.41556 12.03669,-9.36091 16.02309,-15.9317 5.31051,-8.75331 7.8699,-18.55439 7.60814,-29.13512 -0.15352,-6.20473 -1.11401,-11.3895 -3.16616,-17.09076 -3.78839,-10.52484 -11.26079,-19.74864 -20.31204,-25.07284 -2.33839,-1.3755 -3.79778,-3.36522 -4.26873,-5.81995 -1.08288,-5.644187 3.25606,-10.779547 8.32208,-9.849637 1.21765,0.22352 1.94716,0.56325 3.93976,1.83475 5.38309,3.435 9.26082,6.74488 13.49841,11.521707 8.88692,10.01777 14.56967,22.71532 16.37325,36.58446 0.42267,3.25019 0.49797,4.64927 0.49797,9.25301 0,4.6015 -0.0749,5.9941 -0.49741,9.25301 -1.25198,9.65593 -4.39628,18.83661 -9.2196,26.91935 -2.32707,3.89958 -4.60024,6.9552 -7.76412,10.43654 -3.94688,4.3429 -7.3376,7.24578 -12.08755,10.34841 -1.01659,0.66402 -2.20877,1.40881 -2.64929,1.65506 -1.42882,0.79873 -3.25663,1.03918 -4.90121,0.64477 z M 119.5207,178.01387 c -2.67484,-0.43043 -4.98728,-2.47265 -5.92934,-5.23648 -0.74177,-2.17624 -0.63259,-4.43439 0.31667,-6.54987 1.01791,-2.26846 2.39355,-3.46779 5.11396,-4.45849 2.91332,-1.06096 4.88659,-2.39139 6.76209,-4.55919 2.6765,-3.09363 4.06323,-6.94819 4.06323,-11.29423 0,-4.69111 -1.55106,-8.67962 -4.64461,-11.94349 -1.87375,-1.97691 -3.79628,-3.1729 -6.51754,-4.05449 -1.69785,-0.55005 -2.08441,-0.74696 -3.1204,-1.58959 -1.91019,-1.55365 -2.97969,-4.13984 -2.8558,-6.9057 0.15132,-3.37814 2.0541,-6.20307 4.96594,-7.3726 0.89831,-0.3608 2.87473,-0.48506 4.06738,-0.2557 2.60331,0.50062 6.81138,2.52079 9.72521,4.66877 2.54536,1.87636 5.51725,4.9776 7.33322,7.65242 2.97605,4.38353 4.93156,9.52732 5.68781,14.96132 0.31745,2.28093 0.37661,6.69638 0.1177,8.7852 -1.35978,10.97104 -7.20513,20.25788 -15.92013,25.29329 -2.36462,1.36625 -5.44279,2.5929 -7.19965,2.86906 -0.96843,0.15224 -0.95566,0.15231 -1.96574,-0.0102 z"
       id="path1102-1" />
    <rect
       style="fill:#ffffff;stroke:#000000;stroke-width:2.06;stroke-miterlimit:4;stroke-dasharray:none;stroke-opacity:1;fill-opacity:1"
       id="rect4458"
       width="10.298745"
       height="246.82814"
       x="-13.22504"
       y="56.994968"
       ry="2.4753523"
       transform="matrix(-0.8025417,0.59659603,0.59659603,0.8025417,0,0)"
       rx="3.2418163" />
  </g>
</svg>
