<?xml version="1.0" encoding="UTF-8" standalone="no"?>
<svg
   xmlns:dc="http://purl.org/dc/elements/1.1/"
   xmlns:cc="http://creativecommons.org/ns#"
   xmlns:rdf="http://www.w3.org/1999/02/22-rdf-syntax-ns#"
   xmlns:svg="http://www.w3.org/2000/svg"
   xmlns="http://www.w3.org/2000/svg"
   id="svg8"
   version="1.1"
   viewBox="0 0 123 123"
   height="123mm"
   width="123mm">
  <defs
     id="defs2" />
  <metadata
     id="metadata5">
    <rdf:RDF>
      <cc:Work
         rdf:about="">
        <dc:format>image/svg+xml</dc:format>
        <dc:type
           rdf:resource="http://purl.org/dc/dcmitype/StillImage" />
        <dc:title></dc:title>
      </cc:Work>
    </rdf:RDF>
  </metadata>
  <g
     id="layer1">
    <path
       id="path847"
       d="M 16.91557,122.57503 C 4.6779194,122.49173 5.1334854,122.52353 3.7052265,121.65584 2.7597057,121.08146 1.5708242,119.81611 1.0995809,118.88257 0.88680464,118.46107 0.64149284,117.70568 0.55444424,117.20394 0.32657355,115.89054 0.32112285,6.8477619 0.54862424,5.6505719 c 0.08398,-0.44148 0.3037615,-1.11472 0.48839896,-1.4961 0.4713481,-0.97359 2.1138806,-2.59785 3.1597912,-3.12463 0.762403,-0.38398996 0.922972,-0.41455996 2.805179,-0.53411996 1.310626,-0.0832 20.6446746,-0.11994002 56.2797766,-0.10681002 l 54.2833,0.02 1.0065,0.52867002 c 1.44386,0.75838996 2.60247,1.93658996 3.35918,3.41599996 l 0.58406,1.14187 V 61.501872 117.50829 l -0.5922,1.1359 c -0.7654,1.46811 -1.81708,2.53966 -3.27539,3.33732 l -1.05706,0.57818 -44.820562,0.0452 c -24.651305,0.0249 -49.78573,0.0114 -55.85427,-0.0299 z m 95.03341,-7.42833 c 1.40884,-0.72763 2.29083,-1.59032 2.91305,-2.84929 l 0.45095,-0.91244 0.10428,-3.53103 c 0.0574,-1.94207 0.10692,-24.304548 0.11014,-49.694408 l 0.006,-46.16337 -0.52843,-1.08645 c -0.61581,-1.2661801 -1.64018,-2.3844301 -2.70273,-2.9504901 -0.55149,-0.29379 -0.91743,-0.38087 -1.9948,-0.47463 -1.68461,-0.14662 -88.302497,-0.26648 -94.202076,-0.13036 l -4.363616,0.10069 -0.85418,0.40242 c -1.0110161,0.47631 -2.6128316,1.94437 -2.9576546,2.7106901 -0.736465,1.63665 -0.778988,5.03115 -0.701595,56.00294 l 0.06781,44.658038 0.47044,0.84823 c 0.812217,1.46448 2.5311756,2.97637 3.7605596,3.30757 0.755071,0.20341 17.976992,0.29566 60.038681,0.32162 l 39.252731,0.0242 z m -79.032382,-28.184648 -3.635233,-0.035 -0.07635,-1.15138 c -0.04199,-0.63325 -0.08924,-2.31558 -0.105002,-3.73851 l -0.02865,-2.58714 32.259577,1.4e-4 32.259584,1.4e-4 v 3.80258 3.80258 l -28.519337,-0.0292 c -15.685641,-0.0161 -30.1552,-0.045 -32.154586,-0.0642 z m -3.782904,-25.4649 v -3.86492 H 61.36211 93.590521 v 3.86492 3.86491 H 61.36211 29.133694 Z m 0,-21.81808 v -3.86492 H 61.36211 93.590521 v 3.86492 3.86491 H 61.36211 29.133694 Z"
       style="fill:#ffffff;stroke-width:0.124675;fill-opacity:1" />
  </g>
</svg>
