<?xml version="1.0" encoding="UTF-8" standalone="no"?>
<svg
   xmlns:dc="http://purl.org/dc/elements/1.1/"
   xmlns:cc="http://creativecommons.org/ns#"
   xmlns:rdf="http://www.w3.org/1999/02/22-rdf-syntax-ns#"
   xmlns:svg="http://www.w3.org/2000/svg"
   xmlns="http://www.w3.org/2000/svg"
   xmlns:sodipodi="http://sodipodi.sourceforge.net/DTD/sodipodi-0.dtd"
   xmlns:inkscape="http://www.inkscape.org/namespaces/inkscape"
   sodipodi:docname="savemusic.svg"
   inkscape:version="1.0 (4035a4fb49, 2020-05-01)"
   id="svg8"
   version="1.1"
   viewBox="0 0 28 24"
   height="24mm"
   width="28mm">
  <defs
     id="defs2" />
  <sodipodi:namedview
     inkscape:window-maximized="0"
     inkscape:window-y="4"
     inkscape:window-x="151"
     inkscape:window-height="967"
     inkscape:window-width="1513"
     showgrid="false"
     inkscape:document-rotation="0"
     inkscape:current-layer="layer1"
     inkscape:document-units="mm"
     inkscape:cy="45.754732"
     inkscape:cx="108.05371"
     inkscape:zoom="3.959798"
     inkscape:pageshadow="2"
     inkscape:pageopacity="0.0"
     borderopacity="1.0"
     bordercolor="#666666"
     pagecolor="#ffffff"
     id="base" />
  <metadata
     id="metadata5">
    <rdf:RDF>
      <cc:Work
         rdf:about="">
        <dc:format>image/svg+xml</dc:format>
        <dc:type
           rdf:resource="http://purl.org/dc/dcmitype/StillImage" />
        <dc:title></dc:title>
      </cc:Work>
    </rdf:RDF>
  </metadata>
  <g
     id="layer1"
     inkscape:groupmode="layer"
     inkscape:label="Слой 1">
    <path
       id="path847"
       d="M 11.872107,21.36389 9.9178884,19.427457 h 1.4657186 1.465721 v -3.872871 -3.87287 h 0.977223 0.977223 v 3.872506 3.872505 l 1.457385,0.0089 1.457388,0.0089 -1.946112,1.927941 -1.946109,1.927941 z M 5.340146,17.45293 C 4.4492649,17.351506 3.5605876,17.034756 2.8027958,16.548545 1.0163287,15.402314 -0.02433464,13.31305 0.15892336,11.240636 0.32033056,9.4153275 1.2214493,7.8851671 2.7306781,6.8736261 l 0.331597,-0.222248 0.041018,-0.298409 c 0.081646,-0.593954 0.3003611,-1.17212 0.631599,-1.669595 0.1751141,-0.262998 0.5882883,-0.699841 0.8509074,-0.899651 0.6572611,-0.50007 1.5253632,-0.798973 2.3204596,-0.798973 h 0.338097 L 7.6733252,2.5685861 C 10.358932,-0.03684689 14.37255,-0.67037385 17.723115,0.98228211 19.657719,1.9365211 21.171684,3.5596451 21.971537,5.5370181 l 0.14604,0.361036 0.22627,0.02292 c 0.612742,0.06206 1.330329,0.281917 1.964438,0.601867 1.658203,0.836673 2.798964,2.3864424 3.115407,4.2324019 0.102629,0.598681 0.08119,1.566361 -0.04724,2.132502 -0.289932,1.278051 -0.968295,2.407737 -1.921856,3.200495 -0.944424,0.78516 -1.984023,1.230314 -3.193074,1.367271 -0.184812,0.02092 -1.350434,0.03508 -2.905948,0.03522 l -2.597356,2.64e-4 v -0.968213 -0.968217 h 2.601434 c 2.773545,0 2.870809,-0.0049 3.442172,-0.172758 0.315346,-0.09265 0.918822,-0.399362 1.198045,-0.60889 0.683647,-0.513005 1.207125,-1.300679 1.437029,-2.162286 0.09167,-0.343572 0.125425,-1.110298 0.06646,-1.509849 -0.21655,-1.4673545 -1.32355,-2.7153329 -2.779357,-3.1333249 -0.523139,-0.150202 -0.883337,-0.176016 -1.492542,-0.10697 -0.292283,0.03311 -0.540581,0.05116 -0.551775,0.04007 -0.01119,-0.01108 -0.09455,-0.284688 -0.185238,-0.607999 -0.208069,-0.741778 -0.30263,-1.002638 -0.536667,-1.480463 -1.637431,-3.343113 -5.715611,-4.748113 -9.092191,-3.132423 -0.9640456,0.461295 -1.7024166,1.054369 -2.4841988,1.995352 -0.232561,0.279919 -0.363358,0.411266 -0.3991791,0.400849 -0.2132967,-0.062 -0.8378174,-0.154722 -1.0421835,-0.154722 -0.8555066,0 -1.6356014,0.609534 -1.854122,1.448735 -0.066749,0.256347 -0.067463,0.536054 -0.0025,0.980303 0.071172,0.486697 0.084812,0.447231 -0.1988483,0.57531 C 4.4050922,8.1419821 4.0013085,8.3509031 3.7885782,8.4925621 3.5148348,8.6748501 2.958503,9.2252335 2.7760471,9.4942635 1.5035835,11.370509 2.0587424,13.853292 4.0106396,15.015604 c 0.3091265,0.184079 0.6829181,0.335329 1.0986893,0.444574 0.2769896,0.07278 0.3335522,0.07438 3.0339048,0.08578 l 2.7516523,0.01162 v 0.966708 0.966711 l -2.6487868,-0.0044 c -1.4568324,-0.0025 -2.7645106,-0.01756 -2.9059513,-0.03368 z"
       style="fill:#fffff9;stroke-width:0.0341301;fill-opacity:1" />
  </g>
</svg>
